<?xml version="1.0" encoding="UTF-8" standalone="no"?>
<svg width="279.4mm" height="215.9mm"
 viewBox="0 0 3300 2550"
 xmlns="http://www.w3.org/2000/svg" xmlns:xlink="http://www.w3.org/1999/xlink"  version="1.2" baseProfile="tiny">
<defs>
</defs>
<g fill="none" stroke="black" stroke-width="1" fill-rule="evenodd" stroke-linecap="square" stroke-linejoin="bevel" >

<g fill="#ffffff" fill-opacity="1" stroke="none" transform="matrix(1,0,0,1,0,0)"
font-family="Arial" font-size="12" font-weight="400" font-style="normal" 
>
<rect x="0" y="0" width="3300" height="2550"/>
</g>

<g fill="none" stroke="#000000" stroke-opacity="1" stroke-width="1" stroke-linecap="square" stroke-linejoin="bevel" transform="matrix(1,0,0,1,0,0)"
font-family="Arial" font-size="12" font-weight="400" font-style="normal" 
>
</g>

<g fill="#000000" fill-opacity="1" stroke="#000000" stroke-opacity="1" stroke-width="1" stroke-linecap="butt" stroke-linejoin="miter" stroke-miterlimit="2" transform="matrix(1,0,0,1,0,0)"
font-family="Arial" font-size="12" font-weight="400" font-style="normal" 
>
</g>

<g fill="#000000" fill-opacity="1" stroke="#000000" stroke-opacity="1" stroke-width="5" stroke-linecap="round" stroke-linejoin="bevel" transform="matrix(1,0,0,1,0,0)"
font-family="Arial" font-size="12" font-weight="400" font-style="normal" 
>
<polyline fill="none" vector-effect="none" points="974.983,408.763 1119.14,677.822 " />
<polyline fill="none" vector-effect="none" points="669.892,399.077 974.983,408.763 " />
<polyline fill="none" vector-effect="none" points="508.958,658.451 669.892,399.077 " />
<polyline fill="none" vector-effect="none" points="653.116,927.511 508.958,658.451 " />
<polyline fill="none" vector-effect="none" points="958.207,937.196 653.116,927.511 " />
<polyline fill="none" vector-effect="none" points="1119.14,677.822 958.207,937.196 " />
<polyline fill="none" vector-effect="none" points="978.88,972.255 1160.07,677.011 " />
<polyline fill="none" vector-effect="none" points="632.594,962.959 978.88,972.255 " />
<polyline fill="none" vector-effect="none" points="467.502,658.42 632.594,962.959 " />
<polyline fill="none" vector-effect="none" points="648.695,363.175 467.502,658.42 " />
<polyline fill="none" vector-effect="none" points="994.98,372.471 648.695,363.175 " />
<polyline fill="none" vector-effect="none" points="1160.07,677.011 994.98,372.471 " />
</g>

<g fill="none" stroke="#000000" stroke-opacity="1" stroke-width="1" stroke-linecap="square" stroke-linejoin="bevel" transform="matrix(1,0,0,1,0,0)"
font-family="Arial" font-size="12" font-weight="400" font-style="normal" 
>
</g>
</g>
</svg>
